<svg width="7" height="12" viewBox="0 0 7 12" fill="none" xmlns="http://www.w3.org/2000/svg">
<path d="M3.14081 3.87719C3.43371 4.17009 3.90858 4.17009 4.20147 3.87719C4.49437 3.5843 4.49437 3.10943 4.20147 2.81653L3.14081 3.87719ZM1.70147 0.316533C1.40858 0.0236395 0.933706 0.0236395 0.640813 0.316533C0.34792 0.609426 0.34792 1.0843 0.640813 1.37719L1.70147 0.316533ZM0.640813 10.3165C0.347919 10.6094 0.347919 11.0843 0.640813 11.3772C0.933706 11.6701 1.40858 11.6701 1.70147 11.3772L0.640813 10.3165ZM6.70147 6.37719C6.99437 6.0843 6.99437 5.60943 6.70147 5.31653C6.40858 5.02364 5.93371 5.02364 5.64081 5.31653L6.70147 6.37719ZM4.20147 2.81653L1.70147 0.316533L0.640813 1.37719L3.14081 3.87719L4.20147 2.81653ZM1.70147 11.3772L6.70147 6.37719L5.64081 5.31653L0.640813 10.3165L1.70147 11.3772Z" fill="#aee5fa"/>
</svg>
