<svg width="7" height="12" viewBox="0 0 7 12" fill="none" xmlns="http://www.w3.org/2000/svg">
<path d="M4.20147 3.87719C3.90858 4.17009 3.43371 4.17009 3.14081 3.87719C2.84792 3.5843 2.84792 3.10943 3.14081 2.81653L4.20147 3.87719ZM5.64081 0.316533C5.93371 0.0236395 6.40858 0.0236395 6.70147 0.316533C6.99437 0.609426 6.99437 1.0843 6.70147 1.37719L5.64081 0.316533ZM6.70147 10.3165C6.99437 10.6094 6.99437 11.0843 6.70147 11.3772C6.40858 11.6701 5.93371 11.6701 5.64081 11.3772L6.70147 10.3165ZM0.640812 6.37719C0.347919 6.0843 0.347919 5.60943 0.640812 5.31653C0.933706 5.02364 1.40858 5.02364 1.70147 5.31653L0.640812 6.37719ZM3.14081 2.81653L5.64081 0.316533L6.70147 1.37719L4.20147 3.87719L3.14081 2.81653ZM5.64081 11.3772L0.640812 6.37719L1.70147 5.31653L6.70147 10.3165L5.64081 11.3772Z" fill="#aee5fa"/>
</svg>
