<svg width="80" height="80" viewBox="0 0 80 80" fill="none" xmlns="http://www.w3.org/2000/svg">
<rect width="80" height="80" rx="40" fill="white"/>
<mask id="mask0_4_4598" style="mask-type:alpha" maskUnits="userSpaceOnUse" x="0" y="0" width="80" height="80">
<rect width="80" height="80" rx="40" fill="white"/>
</mask>
<g mask="url(#mask0_4_4598)">
<path d="M32.6304 22.5905L35.1006 23.3562C34.9301 24.0755 34.6619 24.6761 34.2963 25.1589C33.9306 25.6419 33.4764 26.0063 32.9342 26.2519C32.3918 26.4978 31.7014 26.6207 30.8631 26.6207C29.846 26.6207 29.0153 26.4735 28.3707 26.1799C27.7259 25.8858 27.17 25.3689 26.7019 24.6285C26.2341 23.8887 26 22.9417 26 21.788C26 20.2492 26.4095 19.0667 27.2292 18.2398C28.0483 17.4131 29.208 17 30.7069 17C31.881 17 32.8036 17.2413 33.4747 17.7241C34.1456 18.2067 34.6445 18.9479 34.9707 19.9475L32.3705 20.5101C32.2825 20.2283 32.1906 20.0224 32.0942 19.8926C31.9344 19.6733 31.7393 19.5044 31.5083 19.3867C31.2774 19.2689 31.0196 19.2103 30.7352 19.2103C30.0894 19.2103 29.5942 19.4667 29.2504 19.9799C28.9903 20.3609 28.8603 20.9584 28.8603 21.7739C28.8603 22.7828 29.0218 23.4743 29.346 23.8489C29.6695 24.2235 30.1237 24.4105 30.7089 24.4105C31.2776 24.4105 31.7074 24.2551 31.9976 23.9445C32.2881 23.6337 32.4992 23.1822 32.6304 22.5905Z" fill="black"/>
<path d="M35.8806 23.4092L38.7407 23.2405C38.7964 23.6796 38.9096 24.0134 39.0801 24.2425C39.3578 24.6144 39.7543 24.8008 40.2704 24.8008C40.6553 24.8008 40.9513 24.7034 41.1592 24.5093C41.3668 24.3151 41.4709 24.0896 41.4709 23.8338C41.4709 23.5915 41.379 23.3742 41.1946 23.1821C41.009 22.9897 40.5332 22.8078 39.7663 22.6375C38.5112 22.3517 37.616 21.9749 37.0811 21.5061C36.5407 21.0374 36.2707 20.4406 36.2707 19.7161C36.2707 19.2379 36.4099 18.7874 36.6872 18.3637C36.9648 17.9399 37.3824 17.6065 37.9394 17.3638C38.4967 17.1217 39.2612 17.0006 40.2323 17.0006C41.4225 17.0006 42.3301 17.2249 42.9549 17.6738C43.5802 18.1229 43.9521 18.8376 44.0715 19.8181L41.2112 19.9907C41.1491 19.5371 41.0185 19.2068 40.8203 19.0005C40.622 18.7936 40.3478 18.6905 39.9983 18.6905C39.7111 18.6905 39.4948 18.7619 39.3495 18.9049C39.2038 19.0481 39.131 19.2215 39.131 19.4258C39.131 19.575 39.1649 19.7097 39.2326 19.8301C39.2976 19.9535 39.583 20.0683 40.0894 20.1755C41.3411 20.448 42.2378 20.7227 42.7794 21.0014C43.3211 21.2797 43.7149 21.6251 43.9616 22.0374C44.2079 22.45 44.331 22.9113 44.331 23.4216C44.331 24.0205 44.1659 24.5724 43.8352 25.0783C43.5049 25.5841 43.0432 25.968 42.4503 26.2292C41.857 26.4909 41.1092 26.6213 40.2071 26.6213C38.6228 26.6213 37.5254 26.3188 36.9155 25.7141C36.3056 25.1092 35.9607 24.341 35.8806 23.4092Z" fill="black"/>
<path d="M45.2415 23.4092L48.1013 23.2405C48.1569 23.6796 48.2699 24.0134 48.4406 24.2425C48.7182 24.6144 49.1149 24.8008 49.6306 24.8008C50.0153 24.8008 50.3118 24.7034 50.5198 24.5093C50.7275 24.3151 50.8319 24.0896 50.8319 23.8338C50.8319 23.5915 50.7394 23.3742 50.5554 23.1821C50.3698 22.9897 49.8934 22.8078 49.1273 22.6375C47.8716 22.3517 46.9765 21.9749 46.4414 21.5061C45.9011 21.0374 45.631 20.4406 45.631 19.7161C45.631 19.2379 45.7699 18.7874 46.0476 18.3637C46.3249 17.9399 46.7429 17.6065 47.3002 17.3638C47.8571 17.1217 48.6215 17.0006 49.5925 17.0006C50.7828 17.0006 51.6905 17.2249 52.3156 17.6738C52.9404 18.1229 53.3124 18.8376 53.4319 19.8181L50.5717 19.9907C50.5094 19.5371 50.3789 19.2068 50.1806 19.0005C49.9821 18.7936 49.7086 18.6905 49.3588 18.6905C49.072 18.6905 48.8552 18.7619 48.7097 18.9049C48.5644 19.0481 48.4914 19.2215 48.4914 19.4258C48.4914 19.575 48.5253 19.7097 48.5927 19.8301C48.6579 19.9535 48.9439 20.0683 49.4505 20.1755C50.7019 20.448 51.5982 20.7227 52.1401 21.0014C52.6815 21.2797 53.0751 21.6251 53.3222 22.0374C53.5684 22.45 53.6916 22.9113 53.6916 23.4216C53.6916 24.0205 53.5264 24.5724 53.1961 25.0783C52.8653 25.5841 52.4036 25.968 51.8105 26.2292C51.2174 26.4909 50.4697 26.6213 49.5676 26.6213C47.9831 26.6213 46.8865 26.3188 46.2758 25.7141C45.6658 25.1092 45.3214 24.341 45.2415 23.4092Z" fill="black"/>
<path d="M29.4646 33L28.4574 38.0074H48.9564L48.3166 41.2419H27.8039L26.8103 46.2494H47.3094L46.1661 51.9609L37.9037 54.6811L30.7441 51.9609L31.2342 49.4841H26.198L25 55.4931L36.8422 60L50.4947 55.4931L52.305 46.4524L52.6725 44.6392L55 33H29.4646Z" fill="black"/>
</g>
</svg>
