<svg width="116" height="85" viewBox="0 0 116 85" fill="none" xmlns="http://www.w3.org/2000/svg">
<path d="M17.0272 4.82901H99.3071V0.82901H17.0272V4.82901ZM103.184 8.70615V61.6004H107.184V8.70615H103.184ZM99.3071 65.4776H17.0272V69.4776H99.3071V65.4776ZM13.15 61.6004V8.70615H9.15003V61.6004H13.15ZM17.0272 65.4776C14.8859 65.4776 13.15 63.7417 13.15 61.6004H9.15003C9.15003 65.9508 12.6767 69.4776 17.0272 69.4776V65.4776ZM103.184 61.6004C103.184 63.7417 101.448 65.4776 99.3071 65.4776V69.4776C103.658 69.4776 107.184 65.9508 107.184 61.6004H103.184ZM99.3071 4.82901C101.448 4.82901 103.184 6.56487 103.184 8.70615H107.184C107.184 4.35573 103.658 0.82901 99.3071 0.82901V4.82901ZM17.0272 0.82901C12.6767 0.82901 9.15003 4.35572 9.15003 8.70615H13.15C13.15 6.56486 14.8859 4.82901 17.0272 4.82901V0.82901ZM9.68075 69.4776H17.0272V65.4776H9.68075V69.4776ZM99.3071 69.4776H106.654V65.4776H99.3071V69.4776ZM106.654 80.1704H9.68074V84.1704H106.654V80.1704ZM9.68074 80.1704C6.728 80.1704 4.33432 77.7767 4.33432 74.824H0.33432C0.33432 79.9859 4.51886 84.1704 9.68074 84.1704V80.1704ZM112 74.824C112 77.7767 109.606 80.1704 106.654 80.1704V84.1704C111.815 84.1704 116 79.9859 116 74.824H112ZM106.654 69.4776C109.606 69.4776 112 71.8712 112 74.824H116C116 69.6621 111.815 65.4776 106.654 65.4776V69.4776ZM9.68075 65.4776C4.51886 65.4776 0.33432 69.6621 0.33432 74.824H4.33432C4.33432 71.8712 6.728 69.4776 9.68075 69.4776V65.4776Z" fill="white"/>
</svg>
