<svg width="58" height="85" viewBox="0 0 58 85" fill="none" xmlns="http://www.w3.org/2000/svg">
<path d="M26.5838 68.9909C26.5838 70.0955 27.4793 70.9909 28.5838 70.9909C29.6884 70.9909 30.5838 70.0955 30.5838 68.9909H26.5838ZM30.5838 68.9468C30.5838 67.8423 29.6884 66.9468 28.5838 66.9468C27.4793 66.9468 26.5838 67.8423 26.5838 68.9468H30.5838ZM10.9524 4.82901H46.2153V0.82901H10.9524V4.82901ZM53.031 11.6447V73.3547H57.031V11.6447H53.031ZM46.2153 80.1704H10.9524V84.1704H46.2153V80.1704ZM4.13672 73.3547V11.6447H0.136719V73.3547H4.13672ZM10.9524 80.1704C7.18822 80.1704 4.13672 77.1189 4.13672 73.3547H0.136719C0.136719 79.328 4.97908 84.1704 10.9524 84.1704V80.1704ZM53.031 73.3547C53.031 77.1189 49.9795 80.1704 46.2153 80.1704V84.1704C52.1886 84.1704 57.031 79.328 57.031 73.3547H53.031ZM46.2153 4.82901C49.9795 4.82901 53.031 7.88051 53.031 11.6447H57.031C57.031 5.67137 52.1886 0.82901 46.2153 0.82901V4.82901ZM10.9524 0.82901C4.97908 0.82901 0.136719 5.67137 0.136719 11.6447H4.13672C4.13672 7.88051 7.18822 4.82901 10.9524 4.82901V0.82901ZM30.5838 68.9909V68.9468H26.5838V68.9909H30.5838Z" fill="white"/>
</svg>
