<svg width="90" height="85" viewBox="0 0 90 85" fill="none" xmlns="http://www.w3.org/2000/svg">
<path d="M66.0951 84.1704C67.1997 84.1704 68.0951 83.275 68.0951 82.1704C68.0951 81.0658 67.1997 80.1704 66.0951 80.1704V84.1704ZM23.7797 80.1704C22.6751 80.1704 21.7797 81.0658 21.7797 82.1704C21.7797 83.275 22.6751 84.1704 23.7797 84.1704V80.1704ZM44.9374 84.1704H66.0951V80.1704H44.9374V84.1704ZM44.9374 80.1704H23.7797V84.1704H44.9374V80.1704ZM46.9374 82.1704V61.0127H42.9374V82.1704H46.9374ZM7.91144 4.82901H81.9634V0.82901H7.91144V4.82901ZM85.2528 8.11844V55.7233H89.2528V8.11844H85.2528ZM4.62201 55.7233V8.11844H0.622009V55.7233H4.62201ZM7.91144 59.0127C6.09474 59.0127 4.62201 57.54 4.62201 55.7233H0.622009C0.622009 59.7491 3.8856 63.0127 7.91144 63.0127V59.0127ZM85.2528 55.7233C85.2528 57.54 83.7801 59.0127 81.9634 59.0127V63.0127C85.9892 63.0127 89.2528 59.7491 89.2528 55.7233H85.2528ZM81.9634 4.82901C83.7801 4.82901 85.2528 6.30174 85.2528 8.11844H89.2528C89.2528 4.0926 85.9892 0.82901 81.9634 0.82901V4.82901ZM7.91144 0.82901C3.8856 0.82901 0.622009 4.0926 0.622009 8.11844H4.62201C4.62201 6.30174 6.09474 4.82901 7.91144 4.82901V0.82901ZM7.91144 63.0127H44.9374V59.0127H7.91144V63.0127ZM44.9374 63.0127H81.9634V59.0127H44.9374V63.0127Z" fill="white"/>
</svg>
