<svg width="80" height="80" viewBox="0 0 80 80" fill="none" xmlns="http://www.w3.org/2000/svg">
<path d="M60 0H20C8.95433 0 0 8.95433 0 20V60C0 71.0457 8.95433 80 20 80H60C71.0457 80 80 71.0457 80 60V20C80 8.95433 71.0457 0 60 0ZM67.699 63.901C67.699 63.901 64.8013 59.1748 59.9915 59.1748C55.3418 59.1748 52.5912 63.901 43.2048 63.901C22.3288 63.901 12.433 46.806 12.433 46.806C31.2462 58.9618 44.1 50.3478 44.1 50.3478C35.6058 45.5347 17.5893 22.483 17.5893 22.483C33.2952 35.5862 40.0728 39.0268 40.0728 39.0268C35.9975 35.7578 24.6397 19.734 24.6397 19.734C33.7282 28.7428 51.7943 41.3045 51.7943 41.3045C56.9747 27.4227 46.9077 14.9982 46.9077 14.9982C71.4958 31.3943 63.5225 49.4123 63.5225 49.4123C63.5225 49.4123 70.5065 57.1355 67.699 63.901Z" fill="white"/>
</svg>
