<svg width="159" height="42" viewBox="0 0 159 42" fill="none" xmlns="http://www.w3.org/2000/svg">
<path d="M128.641 41.0296C127.257 41.0296 125.961 40.7656 124.753 40.2376C123.545 39.7096 122.485 38.9776 121.573 38.0416C120.661 37.0976 119.945 36.0056 119.425 34.7656C118.913 33.5176 118.657 32.1816 118.657 30.7576C118.657 29.3336 118.913 28.0016 119.425 26.7616C119.945 25.5136 120.661 24.4216 121.573 23.4856C122.485 22.5416 123.545 21.8056 124.753 21.2776C125.961 20.7496 127.257 20.4856 128.641 20.4856C130.025 20.4856 131.321 20.7496 132.529 21.2776C133.737 21.8056 134.797 22.5416 135.709 23.4856C136.621 24.4216 137.333 25.5136 137.845 26.7616C138.365 28.0016 138.625 29.3336 138.625 30.7576C138.625 32.1816 138.365 33.5176 137.845 34.7656C137.333 36.0056 136.621 37.0976 135.709 38.0416C134.797 38.9776 133.737 39.7096 132.529 40.2376C131.321 40.7656 130.025 41.0296 128.641 41.0296ZM128.629 37.2856C129.477 37.2856 130.253 37.1256 130.957 36.8056C131.661 36.4856 132.273 36.0336 132.793 35.4496C133.313 34.8656 133.717 34.1776 134.005 33.3856C134.293 32.5856 134.437 31.7096 134.437 30.7576C134.437 29.8056 134.293 28.9336 134.005 28.1416C133.717 27.3416 133.313 26.6496 132.793 26.0656C132.273 25.4816 131.661 25.0296 130.957 24.7096C130.253 24.3896 129.477 24.2296 128.629 24.2296C127.797 24.2296 127.025 24.3896 126.313 24.7096C125.609 25.0296 124.997 25.4816 124.477 26.0656C123.957 26.6496 123.553 27.3416 123.265 28.1416C122.985 28.9336 122.845 29.8056 122.845 30.7576C122.845 31.7096 122.985 32.5856 123.265 33.3856C123.553 34.1776 123.957 34.8656 124.477 35.4496C124.997 36.0336 125.609 36.4856 126.313 36.8056C127.025 37.1256 127.797 37.2856 128.629 37.2856Z" fill="white"/>
<path d="M142.575 41.0553V21.2552H146.463L154.995 34.5752V21.2552H158.883V41.0553H154.995L146.463 27.7353V41.0553H142.575Z" fill="white"/>
<path d="M39.9978 41.0553V20.4303H43.8858V29.4273H51.2898V21.2553H55.1658V41.0553H51.2898V32.8353H43.8858V41.0553H39.9978Z" fill="white"/>
<path d="M4.83696 41.0643C2.99696 41.0643 1.41296 40.4402 0.0849609 39.1922L1.38096 35.9762C2.36496 36.8882 3.30896 37.3442 4.21296 37.3442C5.04496 37.3442 5.69296 37.0563 6.15696 36.4803C6.62896 35.9043 6.86496 35.1123 6.86496 34.1043V20.8802H10.753V35.1123C10.753 37.0003 10.229 38.4642 9.18096 39.5042C8.13296 40.5442 6.68496 41.0643 4.83696 41.0643Z" fill="white"/>
<path d="M6.86878 21.1802V4.3435H1.85278V0.911499H15.7728V4.3435H10.7448V21.1802H6.86878Z" fill="white"/>
<path d="M26.5729 21.4393C25.1889 21.4393 23.8929 21.1753 22.6849 20.6473C21.4769 20.1193 20.4169 19.3873 19.5049 18.4513C18.5929 17.5073 17.8769 16.4153 17.3569 15.1753C16.8449 13.9273 16.5889 12.5913 16.5889 11.1673C16.5889 9.74326 16.8449 8.41126 17.3569 7.17126C17.8769 5.92326 18.5929 4.83126 19.5049 3.89526C20.4169 2.95126 21.4769 2.21526 22.6849 1.68726C23.8929 1.15926 25.1889 0.895264 26.5729 0.895264C27.9569 0.895264 29.2529 1.15926 30.4609 1.68726C31.6689 2.21526 32.7289 2.95126 33.6409 3.89526C34.5529 4.83126 35.2649 5.92326 35.7769 7.17126C36.2969 8.41126 36.5569 9.74326 36.5569 11.1673C36.5569 12.5913 36.2969 13.9273 35.7769 15.1753C35.2649 16.4153 34.5529 17.5073 33.6409 18.4513C32.7289 19.3873 31.6689 20.1193 30.4609 20.6473C29.2529 21.1753 27.9569 21.4393 26.5729 21.4393ZM26.5609 17.6953C27.4089 17.6953 28.1849 17.5353 28.8889 17.2153C29.5929 16.8953 30.2049 16.4433 30.7249 15.8593C31.2449 15.2753 31.6489 14.5873 31.9369 13.7953C32.2249 12.9953 32.3689 12.1193 32.3689 11.1673C32.3689 10.2153 32.2249 9.34326 31.9369 8.55126C31.6489 7.75126 31.2449 7.05926 30.7249 6.47526C30.2049 5.89126 29.5929 5.43926 28.8889 5.11926C28.1849 4.79926 27.4089 4.63926 26.5609 4.63926C25.7289 4.63926 24.9569 4.79926 24.2449 5.11926C23.5409 5.43926 22.9289 5.89126 22.4089 6.47526C21.8889 7.05926 21.4849 7.75126 21.1969 8.55126C20.9169 9.34326 20.7769 10.2153 20.7769 11.1673C20.7769 12.1193 20.9169 12.9953 21.1969 13.7953C21.4849 14.5873 21.8889 15.2753 22.4089 15.8593C22.9289 16.4433 23.5409 16.8953 24.2449 17.2153C24.9569 17.5353 25.7289 17.6953 26.5609 17.6953Z" fill="white"/>
<path d="M26.5729 41.0643C25.1889 41.0643 23.8929 40.8003 22.6849 40.2723C21.4769 39.7443 20.4169 39.0123 19.5049 38.0763C18.5929 37.1323 17.8769 36.0403 17.3569 34.8003C16.8449 33.5523 16.5889 32.2163 16.5889 30.7923C16.5889 29.3683 16.8449 28.0363 17.3569 26.7963C17.8769 25.5483 18.5929 24.4563 19.5049 23.5203C20.4169 22.5763 21.4769 21.8403 22.6849 21.3123C23.8929 20.7843 25.1889 20.5203 26.5729 20.5203C27.9569 20.5203 29.2529 20.7843 30.4609 21.3123C31.6689 21.8403 32.7289 22.5763 33.6409 23.5203C34.5529 24.4563 35.2649 25.5483 35.7769 26.7963C36.2969 28.0363 36.5569 29.3683 36.5569 30.7923C36.5569 32.2163 36.2969 33.5523 35.7769 34.8003C35.2649 36.0403 34.5529 37.1323 33.6409 38.0763C32.7289 39.0123 31.6689 39.7443 30.4609 40.2723C29.2529 40.8003 27.9569 41.0643 26.5729 41.0643ZM26.5609 37.3203C27.4089 37.3203 28.1849 37.1603 28.8889 36.8403C29.5929 36.5203 30.2049 36.0683 30.7249 35.4843C31.2449 34.9003 31.6489 34.2123 31.9369 33.4203C32.2249 32.6203 32.3689 31.7443 32.3689 30.7923C32.3689 29.8403 32.2249 28.9683 31.9369 28.1763C31.6489 27.3763 31.2449 26.6843 30.7249 26.1003C30.2049 25.5163 29.5929 25.0643 28.8889 24.7443C28.1849 24.4243 27.4089 24.2643 26.5609 24.2643C25.7289 24.2643 24.9569 24.4243 24.2449 24.7443C23.5409 25.0643 22.9289 25.5163 22.4089 26.1003C21.8889 26.6843 21.4849 27.3763 21.1969 28.1763C20.9169 28.9683 20.7769 29.8403 20.7769 30.7923C20.7769 31.7443 20.9169 32.6203 21.1969 33.4203C21.4849 34.2123 21.8889 34.9003 22.4089 35.4843C22.9289 36.0683 23.5409 36.5203 24.2449 36.8403C24.9569 37.1603 25.7289 37.3203 26.5609 37.3203Z" fill="white"/>
<path d="M39.9968 20.7115V0.911499H45.6728C47.5768 0.911499 49.0688 1.3275 50.1488 2.1595C51.2288 2.9915 51.7688 4.2355 51.7688 5.8915C51.7688 7.9475 50.9208 9.3995 49.2248 10.2475C50.6088 10.4635 51.6688 10.9955 52.4048 11.8435C53.1488 12.6835 53.5208 13.7875 53.5208 15.1555C53.5208 16.3075 53.2608 17.2995 52.7408 18.1315C52.2208 18.9635 51.4808 19.6035 50.5208 20.0515C49.5608 20.4915 48.4248 20.7115 47.1128 20.7115H39.9968ZM43.8728 8.9275H44.7728C45.8208 8.9275 46.6248 8.7115 47.1848 8.2795C47.7448 7.8395 48.0248 7.2115 48.0248 6.3955C48.0248 5.5715 47.7528 4.9555 47.2088 4.5475C46.6648 4.1315 45.8528 3.9235 44.7728 3.9235H43.8728V8.9275ZM43.8728 17.6875H45.7928C47.0088 17.6875 47.9208 17.4635 48.5288 17.0155C49.1448 16.5675 49.4528 15.9075 49.4528 15.0355C49.4528 14.1475 49.1368 13.4675 48.5048 12.9955C47.8808 12.5155 46.9768 12.2755 45.7928 12.2755H43.8728V17.6875Z" fill="white"/>
<path d="M59.0291 21.3365V0.911499H62.9171V21.3365H59.0291Z" fill="white"/>
<path d="M101.984 14.6523L114.787 14.6523V17.5084H101.984V14.6523Z" fill="white"/>
<path d="M59.0291 41.0553V21.2552H62.9171L71.4491 34.5752V21.2552H75.3371V41.0553H71.4491L62.9171 27.7353V41.0553H59.0291Z" fill="white"/>
<path d="M69.5164 9.80444L92.0657 9.80444V13.2115L69.5164 13.2115V9.80444Z" fill="white"/>
<path fill-rule="evenodd" clip-rule="evenodd" d="M86.7932 1.54405C88.7412 2.02752 90.7076 2.83253 91.989 4.11392C93.0815 5.2064 93.8078 6.66253 94.309 8.06684C94.8186 9.49486 95.1484 11.0221 95.3652 12.392C95.583 13.7688 95.6936 15.0321 95.7501 15.9493C95.7785 16.4093 95.7934 16.786 95.8013 17.0507C95.8052 17.1831 95.8074 17.2878 95.8086 17.3611C95.8092 17.3978 95.8096 17.4266 95.8098 17.4473L95.81 17.4719L95.8101 17.4822C95.8101 17.4822 95.8101 17.4839 93.8601 17.4927C91.9101 17.5014 91.9101 17.502 91.9101 17.502L91.9101 17.5006L91.91 17.4875L91.9092 17.4253C91.9082 17.3683 91.9064 17.281 91.903 17.1668C91.8962 16.9383 91.883 16.6032 91.8575 16.1891C91.8063 15.358 91.7064 14.2233 91.5131 13.0015C91.3187 11.7727 91.0366 10.5006 90.6359 9.37767C90.2267 8.23101 89.7441 7.38448 89.2313 6.87162C88.6962 6.3366 87.5533 5.75101 85.8538 5.32922C84.2159 4.92272 82.3027 4.72829 80.484 4.78555C78.5674 4.84589 77.3799 4.9943 76.3675 5.25718C75.3531 5.52058 74.4242 5.9212 73.0128 6.60685C71.7875 7.20212 70.7155 8.15379 70.2489 9.24012C70.0785 9.63682 69.9545 10.2808 70.0178 10.9488C70.0802 11.6071 70.3041 12.1112 70.6295 12.4326C71.2858 13.0809 72.3963 13.6634 73.6695 14.1398C74.8228 14.5713 75.9195 14.8488 76.5953 15.0197C76.641 15.0313 76.6847 15.0423 76.7265 15.0529M76.7265 15.0529L76.824 15.0777C78.748 15.5663 79.2788 15.704 82.1804 16.7234C84.4108 17.5069 85.4417 17.8927 87.5737 18.8139C87.6176 18.8329 87.6628 18.8523 87.709 18.8722C88.5968 19.2547 89.8979 19.8153 91.2763 20.7962C92.12 21.3965 93.5601 22.815 94.5537 24.2997C96.06 26.5503 96.0378 28.8722 96.0297 29.7229C96.0292 29.7773 96.0287 29.8258 96.0287 29.8678C96.0287 30.2415 95.9633 33.14 94.575 35.4959C93.2468 37.7499 91.9135 39.1754 89.773 40.0994C87.6947 40.9967 84.934 41.4009 82.2019 40.7864C80.2158 40.3397 78.3652 39.5253 76.3799 37.9176C74.2562 36.1979 73.2403 34.4179 72.5688 32.4467C72.0161 30.8243 71.7348 29.4671 71.5916 28.4961C71.52 28.0105 71.4829 27.621 71.4636 27.3426C71.454 27.2034 71.4489 27.0919 71.4461 27.0099C71.4448 26.969 71.444 26.9354 71.4436 26.9094L71.4431 26.8761L71.4431 26.8638L71.443 26.8587V26.8554C71.443 26.8554 71.443 26.8544 73.393 26.8544C75.343 26.8544 75.343 26.8534 75.343 26.8534L75.343 26.8508L75.343 26.8479V26.845C75.3431 26.8481 75.3432 26.8547 75.3435 26.865C75.3436 26.8692 75.3438 26.874 75.3439 26.8794C75.3452 26.9166 75.348 26.982 75.3544 27.0738C75.3671 27.2576 75.3938 27.5467 75.4499 27.9271C75.5621 28.6882 75.7916 29.8127 76.2605 31.1891C76.7344 32.5803 77.3701 33.7011 78.8342 34.8868C80.3393 36.1055 81.6391 36.6624 83.0577 36.9815C84.9228 37.401 86.8442 37.1159 88.2273 36.5188C89.362 36.029 90.1458 35.3303 91.215 33.5159C91.6051 32.8538 91.8462 32.0239 91.9826 31.2563C92.0487 30.8844 92.0857 30.5532 92.1059 30.3017C92.116 30.1765 92.1218 30.073 92.1251 29.9966C92.1267 29.9584 92.1276 29.9276 92.1281 29.9049L92.1286 29.878L92.1287 29.8704L92.1287 29.8678C92.1287 29.8296 92.1288 29.7903 92.129 29.7497C92.1312 28.9534 92.1348 27.6973 91.3126 26.4689C90.5613 25.3462 89.4447 24.2795 89.0151 23.9737C87.9802 23.2373 87.0082 22.8177 86.1171 22.4329C86.0869 22.4199 86.0568 22.4069 86.0268 22.394C84.0003 21.5184 83.0582 21.1654 80.8878 20.4029C78.1204 19.4307 77.6804 19.319 75.9201 18.872L75.7665 18.8329C75.7235 18.822 75.6771 18.8103 75.6275 18.7978C74.9501 18.6268 73.6659 18.3025 72.3027 17.7924C70.8815 17.2606 69.142 16.4451 67.8888 15.2072C66.7406 14.0731 66.2581 12.6137 66.1352 11.3168C66.0132 10.0296 66.2249 8.72676 66.6654 7.7011C67.6183 5.48226 69.5517 3.95246 71.3086 3.0989C72.7614 2.39312 73.9791 1.84804 75.3874 1.48236C76.7977 1.11615 78.3091 0.952096 80.3613 0.887485C82.5113 0.819793 84.7836 1.04529 86.7932 1.54405" fill="white"/>
<path d="M121.405 17.5085C121.326 17.5085 121.255 17.4848 121.192 17.4374C121.145 17.3742 121.121 17.3031 121.121 17.2241V1.20286C121.121 1.12386 121.145 1.06066 121.192 1.01326C121.255 0.950057 121.326 0.918457 121.405 0.918457H125.695C127.133 0.918457 128.286 1.33716 129.155 2.17456C130.024 3.01196 130.459 4.12586 130.459 5.51626V12.9107C130.459 14.3011 130.024 15.415 129.155 16.2524C128.286 17.0898 127.133 17.5085 125.695 17.5085H121.405ZM124.463 14.5223C124.463 14.6013 124.502 14.6408 124.581 14.6408L125.648 14.6171C126.074 14.6013 126.422 14.4196 126.69 14.072C126.959 13.7244 127.101 13.2662 127.117 12.6974V5.72956C127.117 5.12916 126.983 4.65516 126.714 4.30756C126.445 3.95996 126.082 3.78616 125.624 3.78616H124.581C124.502 3.78616 124.463 3.82566 124.463 3.90466V14.5223Z" fill="white"/>
<path d="M144.102 3.50176C144.102 3.58076 144.07 3.65186 144.007 3.71506C143.959 3.76246 143.896 3.78616 143.817 3.78616H138.864C138.785 3.78616 138.745 3.82566 138.745 3.90466V7.64926C138.745 7.72826 138.785 7.76776 138.864 7.76776H141.708C141.787 7.76776 141.85 7.79936 141.898 7.86256C141.961 7.90996 141.992 7.97316 141.992 8.05216V10.3511C141.992 10.4301 141.961 10.5012 141.898 10.5644C141.85 10.6118 141.787 10.6355 141.708 10.6355H138.864C138.785 10.6355 138.745 10.675 138.745 10.754V14.5223C138.745 14.6013 138.785 14.6408 138.864 14.6408H143.817C143.896 14.6408 143.959 14.6724 144.007 14.7356C144.07 14.783 144.102 14.8462 144.102 14.9252V17.2241C144.102 17.3031 144.07 17.3742 144.007 17.4374C143.959 17.4848 143.896 17.5085 143.817 17.5085H135.688C135.609 17.5085 135.538 17.4848 135.475 17.4374C135.427 17.3742 135.404 17.3031 135.404 17.2241V1.20286C135.404 1.12386 135.427 1.06066 135.475 1.01326C135.538 0.950057 135.609 0.918457 135.688 0.918457H143.817C143.896 0.918457 143.959 0.950057 144.007 1.01326C144.07 1.06066 144.102 1.12386 144.102 1.20286V3.50176Z" fill="white"/>
<path d="M152.076 17.5085C151.902 17.5085 151.8 17.4216 151.768 17.2478L148.379 1.22656L148.355 1.13176C148.355 0.989557 148.442 0.918457 148.616 0.918457H151.673C151.863 0.918457 151.966 1.00536 151.981 1.17916L153.617 11.6072C153.632 11.6704 153.656 11.702 153.688 11.702C153.719 11.702 153.743 11.6704 153.759 11.6072L155.347 1.17916C155.363 1.00536 155.465 0.918457 155.655 0.918457H158.617C158.823 0.918457 158.902 1.02116 158.854 1.22656L155.442 17.2478C155.41 17.4216 155.307 17.5085 155.133 17.5085H152.076Z" fill="white"/>
<path d="M113.643 12.3146L111.378 11.0771C110.873 11.4821 110.258 11.7871 109.533 11.9921C108.813 12.1971 107.998 12.2996 107.088 12.2996C105.968 12.2996 105.023 12.1721 104.253 11.9171C103.483 11.6571 102.905 11.2896 102.52 10.8146C102.135 10.3346 101.943 9.76955 101.943 9.11955C101.943 8.51955 102.11 7.98955 102.445 7.52955C102.785 7.06955 103.225 6.71705 103.765 6.47205C103.475 6.13705 103.27 5.80955 103.15 5.48955C103.035 5.16455 102.978 4.82955 102.978 4.48455C102.978 3.73955 103.183 3.10205 103.593 2.57205C104.003 2.03705 104.625 1.62705 105.46 1.34205C106.295 1.05705 107.338 0.914551 108.588 0.914551C109.348 0.914551 110.103 0.964551 110.853 1.06455V3.82455C110.553 3.76955 110.22 3.72455 109.855 3.68955C109.495 3.64955 109.153 3.62955 108.828 3.62955C108.213 3.62955 107.733 3.67205 107.388 3.75705C107.043 3.84205 106.803 3.95955 106.668 4.10955C106.538 4.25455 106.473 4.43455 106.473 4.64955C106.473 4.83455 106.545 5.00955 106.69 5.17455C106.84 5.33955 107.083 5.51455 107.418 5.69955L110.343 7.29705V7.19955C110.343 6.65955 110.258 6.04955 110.088 5.36955H112.773C112.848 5.66955 112.905 5.97705 112.945 6.29205C112.99 6.60705 113.013 6.89955 113.013 7.16955C113.013 7.72455 112.958 8.22455 112.848 8.66955L114.993 9.83955L113.643 12.3146ZM107.508 9.98955C108.083 9.98955 108.56 9.90705 108.94 9.74205L106.068 8.17455L105.67 7.94955C105.515 8.20455 105.438 8.47455 105.438 8.75955C105.438 9.15455 105.62 9.45955 105.985 9.67455C106.35 9.88455 106.858 9.98955 107.508 9.98955Z" fill="white"/>
<path fill-rule="evenodd" clip-rule="evenodd" d="M110.043 21.4325C110.982 21.6819 111.962 22.0828 112.7 22.678C113.963 23.6967 114.442 25.2496 114.646 26.2012C114.758 26.7259 114.813 27.1983 114.84 27.5388C114.854 27.7107 114.861 27.8534 114.865 27.9575C114.867 28.0097 114.868 28.0525 114.868 28.0848L114.869 28.1254L114.869 28.1396L114.869 28.1451L114.869 28.1475V28.1486C114.869 28.1486 114.869 28.1496 112.919 28.1491C110.969 28.1486 110.969 28.1495 110.969 28.1495V28.152L110.969 28.1545L110.969 28.1567C110.969 28.1567 110.969 28.1541 110.969 28.1495C110.969 28.1404 110.968 28.1228 110.967 28.0964C110.966 28.0435 110.961 27.9591 110.953 27.8514C110.935 27.6326 110.9 27.335 110.832 27.017C110.675 26.2831 110.432 25.8594 110.252 25.7142C110.103 25.5937 109.702 25.3772 109.042 25.2019C108.414 25.0352 107.695 24.9444 107.014 24.9658C106.201 24.9914 105.764 25.053 105.425 25.141C105.084 25.2295 104.752 25.3672 104.137 25.666C103.961 25.7513 103.795 25.8633 103.663 25.9863C103.533 26.1075 103.465 26.2123 103.434 26.2846C103.434 26.2846 103.425 26.3094 103.418 26.3558C103.41 26.4097 103.408 26.4666 103.413 26.5162C103.414 26.5298 103.416 26.5414 103.417 26.5509C103.568 26.674 103.87 26.846 104.335 27.0198C104.789 27.1897 105.224 27.2999 105.525 27.3761C105.543 27.3808 105.561 27.3853 105.579 27.3898M105.579 27.3898L105.622 27.4008C106.509 27.6259 106.775 27.6965 108.093 28.1594C109.1 28.5131 109.582 28.6935 110.558 29.1151C110.579 29.1243 110.602 29.1339 110.625 29.1439C111.022 29.315 111.692 29.6032 112.4 30.1072C112.89 30.4556 113.619 31.1832 114.128 31.943C114.99 33.2306 114.972 34.5623 114.967 34.9547C114.966 34.9798 114.966 35.001 114.966 35.0182C114.966 35.22 114.942 36.7574 114.17 38.0674C113.509 39.1903 112.764 40.0253 111.534 40.5563C110.418 41.0381 108.959 41.2507 107.505 40.9236C106.465 40.6898 105.491 40.2566 104.476 39.4348C103.35 38.5228 102.793 37.5492 102.44 36.5128C102.171 35.7241 102.032 35.0568 101.96 34.5673C101.923 34.3225 101.904 34.1217 101.894 33.9718C101.889 33.8968 101.886 33.8345 101.884 33.7856C101.883 33.7612 101.883 33.7402 101.882 33.7226L101.882 33.6988L101.882 33.6889L101.882 33.6844V33.6813C101.882 33.6813 101.882 33.6803 103.832 33.6803C105.782 33.6803 105.782 33.6793 105.782 33.6793L105.782 33.6765L105.782 33.673L105.782 33.6669L105.782 33.6582C105.782 33.6541 105.782 33.6531 105.782 33.6551C105.782 33.6592 105.783 33.6754 105.784 33.703C105.788 33.7582 105.797 33.8587 105.818 33.9984C105.859 34.2779 105.946 34.7125 106.131 35.2552C106.287 35.7116 106.463 36.026 106.93 36.4039C107.465 36.8369 107.889 37.0125 108.361 37.1187C108.948 37.2507 109.568 37.1573 109.988 36.9757C110.213 36.8789 110.408 36.7707 110.81 36.0874C110.892 35.9483 110.969 35.7201 111.018 35.445C111.058 35.2204 111.065 35.0489 111.066 35.0202C111.066 35.0153 111.066 35.0145 111.066 35.0182C111.066 34.6445 111.065 34.3786 110.887 34.1122C110.772 33.9402 110.611 33.7459 110.442 33.5695C110.36 33.484 110.285 33.4119 110.224 33.3573C110.166 33.3055 110.137 33.2834 110.137 33.2834L110.139 33.2847C109.774 33.0249 109.433 32.8777 109.025 32.7015L109.011 32.6952C108.141 32.3192 107.747 32.1716 106.8 31.8389C105.616 31.423 105.44 31.3783 104.716 31.1944L104.619 31.1698C104.6 31.165 104.579 31.1597 104.556 31.154C104.255 31.0779 103.632 30.9209 102.968 30.6724C102.296 30.4209 101.349 29.994 100.626 29.2805C99.8877 28.5511 99.6016 27.6375 99.5302 26.8842C99.4597 26.1406 99.5781 25.379 99.8488 24.7487C100.407 23.4488 101.505 22.6088 102.433 22.1581C103.089 21.8391 103.71 21.5569 104.445 21.3661C105.182 21.1748 105.943 21.0976 106.892 21.0678C107.973 21.0337 109.071 21.1746 110.043 21.4325" fill="white"/>
</svg>
